<mxfile host="app.diagrams.net" modified="2022-09-12T14:02:56.926Z" agent="5.0 (Windows NT 10.0; Win64; x64) AppleWebKit/537.36 (KHTML, like Gecko) Chrome/105.0.0.0 Safari/537.36" etag="h891PPXbg4k9SyKYkJqZ" version="20.2.6" type="github">
  <diagram id="9EDrG_N-OyfUDQPqgCCF" name="Page-1">
    <mxGraphModel dx="1460" dy="609" grid="1" gridSize="10" guides="1" tooltips="1" connect="1" arrows="1" fold="1" page="1" pageScale="1" pageWidth="850" pageHeight="1100" math="0" shadow="0">
      <root>
        <mxCell id="0" />
        <mxCell id="1" parent="0" />
        <object placeholders="1" c4Name="Restaurant Finder" c4Type="" c4Application="C3 Project: Restaurant Finder: Part 1" label="&lt;font style=&quot;font-size: 16px&quot;&gt;&lt;b&gt;&lt;div style=&quot;text-align: left&quot;&gt;%c4Name%&lt;/div&gt;&lt;/b&gt;&lt;/font&gt;&lt;div style=&quot;text-align: left&quot;&gt;[%c4Application%]&lt;/div&gt;" id="6RJdNyNy-ZK5UvsH4Clp-1">
          <mxCell style="rounded=1;fontSize=11;whiteSpace=wrap;html=1;dashed=1;arcSize=20;fillColor=none;strokeColor=#666666;fontColor=#333333;labelBackgroundColor=none;align=left;verticalAlign=bottom;labelBorderColor=none;spacingTop=0;spacing=10;dashPattern=8 4;metaEdit=1;rotatable=0;perimeter=rectanglePerimeter;noLabel=0;labelPadding=0;allowArrows=0;connectable=0;expand=0;recursiveResize=0;editable=1;pointerEvents=0;absoluteArcSize=1;points=[[0.25,0,0],[0.5,0,0],[0.75,0,0],[1,0.25,0],[1,0.5,0],[1,0.75,0],[0.75,1,0],[0.5,1,0],[0.25,1,0],[0,0.75,0],[0,0.5,0],[0,0.25,0]];" vertex="1" parent="1">
            <mxGeometry x="140" y="50" width="580" height="560" as="geometry" />
          </mxCell>
        </object>
        <mxCell id="6RJdNyNy-ZK5UvsH4Clp-2" value="USER" style="shape=umlActor;html=1;verticalLabelPosition=bottom;verticalAlign=top;align=center;" vertex="1" parent="1">
          <mxGeometry x="10" y="350" width="30" height="70" as="geometry" />
        </mxCell>
        <mxCell id="6RJdNyNy-ZK5UvsH4Clp-3" value="ADMIN" style="shape=umlActor;html=1;verticalLabelPosition=bottom;verticalAlign=top;align=center;" vertex="1" parent="1">
          <mxGeometry x="810" y="270" width="30" height="60" as="geometry" />
        </mxCell>
        <mxCell id="6RJdNyNy-ZK5UvsH4Clp-5" value="Search Restaurants" style="ellipse;whiteSpace=wrap;html=1;" vertex="1" parent="1">
          <mxGeometry x="260" y="70" width="110" height="40" as="geometry" />
        </mxCell>
        <mxCell id="6RJdNyNy-ZK5UvsH4Clp-6" value="View Restaurants&amp;nbsp;" style="ellipse;whiteSpace=wrap;html=1;" vertex="1" parent="1">
          <mxGeometry x="210" y="140" width="110" height="40" as="geometry" />
        </mxCell>
        <mxCell id="6RJdNyNy-ZK5UvsH4Clp-7" value="View Menu Details" style="ellipse;whiteSpace=wrap;html=1;" vertex="1" parent="1">
          <mxGeometry x="315" y="190" width="110" height="40" as="geometry" />
        </mxCell>
        <mxCell id="6RJdNyNy-ZK5UvsH4Clp-8" value="Select Items" style="ellipse;whiteSpace=wrap;html=1;" vertex="1" parent="1">
          <mxGeometry x="260" y="310" width="110" height="30" as="geometry" />
        </mxCell>
        <mxCell id="6RJdNyNy-ZK5UvsH4Clp-9" value="View Total Bill&amp;nbsp;" style="ellipse;whiteSpace=wrap;html=1;" vertex="1" parent="1">
          <mxGeometry x="260" y="440" width="110" height="30" as="geometry" />
        </mxCell>
        <mxCell id="6RJdNyNy-ZK5UvsH4Clp-11" value="" style="edgeStyle=elbowEdgeStyle;html=1;endArrow=none;elbow=vertical;rounded=0;entryX=-0.012;entryY=0.647;entryDx=0;entryDy=0;entryPerimeter=0;" edge="1" parent="1" target="6RJdNyNy-ZK5UvsH4Clp-5">
          <mxGeometry width="160" relative="1" as="geometry">
            <mxPoint x="100" y="100" as="sourcePoint" />
            <mxPoint x="250" y="94.5" as="targetPoint" />
            <Array as="points">
              <mxPoint x="150" y="90" />
            </Array>
          </mxGeometry>
        </mxCell>
        <mxCell id="6RJdNyNy-ZK5UvsH4Clp-12" value="" style="endArrow=none;startArrow=none;endFill=0;startFill=0;endSize=8;html=1;verticalAlign=bottom;labelBackgroundColor=none;strokeWidth=3;rounded=0;" edge="1" parent="1">
          <mxGeometry width="160" relative="1" as="geometry">
            <mxPoint x="100" y="610" as="sourcePoint" />
            <mxPoint x="100" y="40" as="targetPoint" />
          </mxGeometry>
        </mxCell>
        <mxCell id="6RJdNyNy-ZK5UvsH4Clp-14" value="" style="edgeStyle=elbowEdgeStyle;html=1;endArrow=none;elbow=vertical;rounded=0;entryX=0;entryY=0.5;entryDx=0;entryDy=0;" edge="1" parent="1" target="6RJdNyNy-ZK5UvsH4Clp-7">
          <mxGeometry width="160" relative="1" as="geometry">
            <mxPoint x="101.32" y="213.82999999999998" as="sourcePoint" />
            <mxPoint x="260.00000000000006" y="216.18" as="targetPoint" />
          </mxGeometry>
        </mxCell>
        <mxCell id="6RJdNyNy-ZK5UvsH4Clp-16" value="" style="edgeStyle=elbowEdgeStyle;html=1;endArrow=none;elbow=vertical;rounded=0;entryX=-0.012;entryY=0.647;entryDx=0;entryDy=0;entryPerimeter=0;" edge="1" parent="1">
          <mxGeometry width="160" relative="1" as="geometry">
            <mxPoint x="101.32" y="320.00000000000006" as="sourcePoint" />
            <mxPoint x="260.00000000000006" y="322.3500000000001" as="targetPoint" />
          </mxGeometry>
        </mxCell>
        <mxCell id="6RJdNyNy-ZK5UvsH4Clp-18" value="" style="edgeStyle=elbowEdgeStyle;html=1;endArrow=none;elbow=vertical;rounded=0;" edge="1" parent="1">
          <mxGeometry width="160" relative="1" as="geometry">
            <mxPoint x="38.99999999999994" y="371.99999999999994" as="sourcePoint" />
            <mxPoint x="99" y="374" as="targetPoint" />
          </mxGeometry>
        </mxCell>
        <mxCell id="6RJdNyNy-ZK5UvsH4Clp-19" value="&amp;lt;&amp;lt;include&amp;gt;&amp;gt;" style="html=1;verticalAlign=bottom;labelBackgroundColor=none;endArrow=open;endFill=0;dashed=1;rounded=0;entryX=0.5;entryY=1;entryDx=0;entryDy=0;exitX=0.5;exitY=0;exitDx=0;exitDy=0;" edge="1" parent="1" source="6RJdNyNy-ZK5UvsH4Clp-9" target="6RJdNyNy-ZK5UvsH4Clp-8">
          <mxGeometry width="160" relative="1" as="geometry">
            <mxPoint x="370" y="340" as="sourcePoint" />
            <mxPoint x="630" y="260" as="targetPoint" />
          </mxGeometry>
        </mxCell>
        <mxCell id="6RJdNyNy-ZK5UvsH4Clp-23" value="&amp;lt;&amp;lt;include&amp;gt;&amp;gt;" style="html=1;verticalAlign=bottom;labelBackgroundColor=none;endArrow=open;endFill=0;dashed=1;rounded=0;entryX=0.5;entryY=1;entryDx=0;entryDy=0;exitX=0.5;exitY=0;exitDx=0;exitDy=0;" edge="1" parent="1" source="6RJdNyNy-ZK5UvsH4Clp-7" target="6RJdNyNy-ZK5UvsH4Clp-5">
          <mxGeometry width="160" relative="1" as="geometry">
            <mxPoint x="315" y="170" as="sourcePoint" />
            <mxPoint x="470" y="130" as="targetPoint" />
          </mxGeometry>
        </mxCell>
        <mxCell id="6RJdNyNy-ZK5UvsH4Clp-25" value="" style="edgeStyle=elbowEdgeStyle;html=1;endArrow=none;elbow=vertical;rounded=0;entryX=-0.012;entryY=0.647;entryDx=0;entryDy=0;entryPerimeter=0;" edge="1" parent="1">
          <mxGeometry width="160" relative="1" as="geometry">
            <mxPoint x="101.31999999999994" y="453.82000000000005" as="sourcePoint" />
            <mxPoint x="260" y="456.1700000000001" as="targetPoint" />
          </mxGeometry>
        </mxCell>
        <mxCell id="6RJdNyNy-ZK5UvsH4Clp-26" value="&amp;lt;&amp;lt;include&amp;gt;&amp;gt;" style="html=1;verticalAlign=bottom;labelBackgroundColor=none;endArrow=open;endFill=0;dashed=1;rounded=0;entryX=0.5;entryY=1;entryDx=0;entryDy=0;" edge="1" parent="1" target="6RJdNyNy-ZK5UvsH4Clp-7">
          <mxGeometry width="160" relative="1" as="geometry">
            <mxPoint x="320" y="310" as="sourcePoint" />
            <mxPoint x="480" y="310" as="targetPoint" />
          </mxGeometry>
        </mxCell>
        <mxCell id="6RJdNyNy-ZK5UvsH4Clp-27" value="Add Restaurant" style="ellipse;whiteSpace=wrap;html=1;" vertex="1" parent="1">
          <mxGeometry x="480" y="70" width="110" height="30" as="geometry" />
        </mxCell>
        <mxCell id="6RJdNyNy-ZK5UvsH4Clp-28" value="Update Restaurant" style="ellipse;whiteSpace=wrap;html=1;" vertex="1" parent="1">
          <mxGeometry x="480" y="110" width="110" height="30" as="geometry" />
        </mxCell>
        <mxCell id="6RJdNyNy-ZK5UvsH4Clp-29" value="Delete Restaurant" style="ellipse;whiteSpace=wrap;html=1;" vertex="1" parent="1">
          <mxGeometry x="480" y="150" width="110" height="30" as="geometry" />
        </mxCell>
        <mxCell id="6RJdNyNy-ZK5UvsH4Clp-30" value="Add Menu item" style="ellipse;whiteSpace=wrap;html=1;" vertex="1" parent="1">
          <mxGeometry x="490" y="210" width="110" height="30" as="geometry" />
        </mxCell>
        <mxCell id="6RJdNyNy-ZK5UvsH4Clp-31" value="Update Menu Item" style="ellipse;whiteSpace=wrap;html=1;" vertex="1" parent="1">
          <mxGeometry x="425" y="250" width="110" height="30" as="geometry" />
        </mxCell>
        <mxCell id="6RJdNyNy-ZK5UvsH4Clp-33" value="Manage Restaurant Details" style="ellipse;whiteSpace=wrap;html=1;" vertex="1" parent="1">
          <mxGeometry x="490" y="370" width="130" height="50" as="geometry" />
        </mxCell>
        <mxCell id="6RJdNyNy-ZK5UvsH4Clp-34" value="" style="endArrow=none;startArrow=none;endFill=0;startFill=0;endSize=8;html=1;verticalAlign=bottom;labelBackgroundColor=none;strokeWidth=3;rounded=0;" edge="1" parent="1">
          <mxGeometry width="160" relative="1" as="geometry">
            <mxPoint x="760" y="610" as="sourcePoint" />
            <mxPoint x="760" y="50" as="targetPoint" />
          </mxGeometry>
        </mxCell>
        <mxCell id="6RJdNyNy-ZK5UvsH4Clp-38" value="" style="edgeStyle=elbowEdgeStyle;html=1;endArrow=none;elbow=vertical;rounded=0;" edge="1" parent="1">
          <mxGeometry width="160" relative="1" as="geometry">
            <mxPoint x="760" y="289" as="sourcePoint" />
            <mxPoint x="820" y="291" as="targetPoint" />
          </mxGeometry>
        </mxCell>
        <mxCell id="6RJdNyNy-ZK5UvsH4Clp-40" value="" style="edgeStyle=elbowEdgeStyle;html=1;endArrow=none;elbow=vertical;rounded=0;entryX=-0.012;entryY=0.647;entryDx=0;entryDy=0;entryPerimeter=0;exitX=1;exitY=0.5;exitDx=0;exitDy=0;" edge="1" parent="1" source="6RJdNyNy-ZK5UvsH4Clp-27">
          <mxGeometry width="160" relative="1" as="geometry">
            <mxPoint x="598.6800000000001" y="88.91" as="sourcePoint" />
            <mxPoint x="757.3600000000001" y="84.78999999999999" as="targetPoint" />
          </mxGeometry>
        </mxCell>
        <mxCell id="6RJdNyNy-ZK5UvsH4Clp-41" value="" style="edgeStyle=elbowEdgeStyle;html=1;endArrow=none;elbow=vertical;rounded=0;exitX=1;exitY=0.5;exitDx=0;exitDy=0;" edge="1" parent="1" source="6RJdNyNy-ZK5UvsH4Clp-28">
          <mxGeometry width="160" relative="1" as="geometry">
            <mxPoint x="600" y="119.99999999999996" as="sourcePoint" />
            <mxPoint x="760" y="120" as="targetPoint" />
          </mxGeometry>
        </mxCell>
        <mxCell id="6RJdNyNy-ZK5UvsH4Clp-42" value="" style="edgeStyle=elbowEdgeStyle;html=1;endArrow=none;elbow=vertical;rounded=0;entryX=-0.012;entryY=0.647;entryDx=0;entryDy=0;entryPerimeter=0;exitX=1;exitY=0.5;exitDx=0;exitDy=0;" edge="1" parent="1">
          <mxGeometry width="160" relative="1" as="geometry">
            <mxPoint x="590" y="164.71" as="sourcePoint" />
            <mxPoint x="757.3600000000001" y="164.49999999999997" as="targetPoint" />
          </mxGeometry>
        </mxCell>
        <mxCell id="6RJdNyNy-ZK5UvsH4Clp-43" value="" style="edgeStyle=elbowEdgeStyle;html=1;endArrow=none;elbow=vertical;rounded=0;exitX=1;exitY=0.5;exitDx=0;exitDy=0;" edge="1" parent="1">
          <mxGeometry width="160" relative="1" as="geometry">
            <mxPoint x="600" y="227.5" as="sourcePoint" />
            <mxPoint x="760" y="223" as="targetPoint" />
          </mxGeometry>
        </mxCell>
        <mxCell id="6RJdNyNy-ZK5UvsH4Clp-44" value="" style="edgeStyle=elbowEdgeStyle;html=1;endArrow=none;elbow=vertical;rounded=0;exitX=1;exitY=0.5;exitDx=0;exitDy=0;" edge="1" parent="1" source="6RJdNyNy-ZK5UvsH4Clp-31">
          <mxGeometry width="160" relative="1" as="geometry">
            <mxPoint x="600" y="267.25" as="sourcePoint" />
            <mxPoint x="760" y="267" as="targetPoint" />
            <Array as="points">
              <mxPoint x="540" y="260" />
            </Array>
          </mxGeometry>
        </mxCell>
        <mxCell id="6RJdNyNy-ZK5UvsH4Clp-45" value="" style="edgeStyle=elbowEdgeStyle;html=1;endArrow=none;elbow=vertical;rounded=0;startArrow=none;" edge="1" parent="1">
          <mxGeometry width="160" relative="1" as="geometry">
            <mxPoint x="640" y="303" as="sourcePoint" />
            <mxPoint x="760" y="302.75" as="targetPoint" />
          </mxGeometry>
        </mxCell>
        <mxCell id="6RJdNyNy-ZK5UvsH4Clp-46" value="" style="edgeStyle=elbowEdgeStyle;html=1;endArrow=none;elbow=vertical;rounded=0;exitX=1;exitY=0.5;exitDx=0;exitDy=0;" edge="1" parent="1">
          <mxGeometry width="160" relative="1" as="geometry">
            <mxPoint x="620" y="397.25" as="sourcePoint" />
            <mxPoint x="760" y="395" as="targetPoint" />
          </mxGeometry>
        </mxCell>
        <mxCell id="6RJdNyNy-ZK5UvsH4Clp-47" value="" style="edgeStyle=elbowEdgeStyle;html=1;endArrow=none;elbow=vertical;rounded=0;exitX=1;exitY=0.5;exitDx=0;exitDy=0;" edge="1" parent="1">
          <mxGeometry width="160" relative="1" as="geometry">
            <mxPoint x="100" y="161.25" as="sourcePoint" />
            <mxPoint x="210" y="159" as="targetPoint" />
          </mxGeometry>
        </mxCell>
        <mxCell id="6RJdNyNy-ZK5UvsH4Clp-49" value="Update Location" style="ellipse;whiteSpace=wrap;html=1;" vertex="1" parent="1">
          <mxGeometry x="425" y="462.5" width="120" height="35" as="geometry" />
        </mxCell>
        <mxCell id="6RJdNyNy-ZK5UvsH4Clp-50" value="Update Timing" style="ellipse;whiteSpace=wrap;html=1;" vertex="1" parent="1">
          <mxGeometry x="560" y="466" width="100" height="30" as="geometry" />
        </mxCell>
        <mxCell id="6RJdNyNy-ZK5UvsH4Clp-51" value="&amp;lt;&amp;lt;extend&amp;gt;&amp;gt;" style="html=1;verticalAlign=bottom;labelBackgroundColor=none;endArrow=open;endFill=0;dashed=1;rounded=0;entryX=0;entryY=0.5;entryDx=0;entryDy=0;" edge="1" parent="1" target="6RJdNyNy-ZK5UvsH4Clp-33">
          <mxGeometry width="160" relative="1" as="geometry">
            <mxPoint x="480" y="280" as="sourcePoint" />
            <mxPoint x="500" y="390" as="targetPoint" />
          </mxGeometry>
        </mxCell>
        <mxCell id="6RJdNyNy-ZK5UvsH4Clp-32" value="Delete Menu Item" style="ellipse;whiteSpace=wrap;html=1;" vertex="1" parent="1">
          <mxGeometry x="530" y="288" width="110" height="30" as="geometry" />
        </mxCell>
        <mxCell id="6RJdNyNy-ZK5UvsH4Clp-54" value="&amp;lt;&amp;lt;extend&amp;gt;&amp;gt;" style="html=1;verticalAlign=bottom;labelBackgroundColor=none;endArrow=open;endFill=0;dashed=1;rounded=0;entryX=0;entryY=1;entryDx=0;entryDy=0;" edge="1" parent="1" target="6RJdNyNy-ZK5UvsH4Clp-33">
          <mxGeometry width="160" relative="1" as="geometry">
            <mxPoint x="480" y="460" as="sourcePoint" />
            <mxPoint x="640" y="460" as="targetPoint" />
          </mxGeometry>
        </mxCell>
        <mxCell id="6RJdNyNy-ZK5UvsH4Clp-55" value="&amp;lt;&amp;lt;extend&amp;gt;&amp;gt;" style="html=1;verticalAlign=bottom;labelBackgroundColor=none;endArrow=open;endFill=0;dashed=1;rounded=0;entryX=1;entryY=1;entryDx=0;entryDy=0;exitX=0.5;exitY=0;exitDx=0;exitDy=0;" edge="1" parent="1" source="6RJdNyNy-ZK5UvsH4Clp-50" target="6RJdNyNy-ZK5UvsH4Clp-33">
          <mxGeometry width="160" relative="1" as="geometry">
            <mxPoint x="610" y="460" as="sourcePoint" />
            <mxPoint x="770" y="460" as="targetPoint" />
          </mxGeometry>
        </mxCell>
      </root>
    </mxGraphModel>
  </diagram>
</mxfile>
